# xmcd CD database file
#
# Track frame offsets:
#	150
#	13215
#	24565
#	35322
#	45755
#	57512
#	69315
#	82007
#	93347
#	110450
#	126520
#	139835
#	152532
#	169097
#	182927
#	195172
#
# Disc length: 2789 seconds
#
# Revision: 1
# Processed by: cddbd v1.5.2PL0 Copyright (c) Steve Scherf et al.
# Submitted via: CDex 1.92
#
DISCID=cf0ae310
DTITLE=The Drifters - N-001 The Drifters On Broadway
DYEAR=1996
DGENRE=Blues
TTITLE0=On Broadway
TTITLE1=Save the Last Dance for Me
TTITLE2=Dance With Me
TTITLE3=There Goes My Baby
TTITLE4=Up on the Roof
TTITLE5=Under The Boardwalk
TTITLE6=(Sittin' on the) Dock of the Bay
TTITLE7=Anothe Saturday Night
TTITLE8=Stand By Me
TTITLE9=Cupid
TTITLE10=Wonderful World
TTITLE11=You Send Me
TTITLE12=Unchained Melody
TTITLE13=Summerime
TTITLE14=Bring It on Home to Me
TTITLE15=Tie A Yellow Ribbon Round The Old Oak Tree
EXTD=YEAR: 1996
EXTT0=
EXTT1=
EXTT2=
EXTT3=
EXTT4=
EXTT5=
EXTT6=
EXTT7=
EXTT8=
EXTT9=
EXTT10=
EXTT11=
EXTT12=
EXTT13=
EXTT14=
EXTT15=
PLAYORDER=
